<?xml version="1.0" encoding="UTF-8"?><svg id="Layer_1" xmlns="http://www.w3.org/2000/svg" viewBox="0 0 1713.61 1795.98"><path d="M631.98,1232.7c-46.89,187.98-93.69,375.62-140.5,563.27h-84.19c46.82-187.71,93.56-375.12,140.42-563-1.77-.11-3.21-.27-4.65-.27-88.5,0-177,.04-265.49-.05-3.35,0-4.89,.74-6.02,4.15-28.89,87.22-57.92,174.39-86.93,261.57-27.18,81.67-54.36,163.34-81.55,245.01-5.82,17.49-11.68,34.97-17.57,52.6H0c.09-5.8,442.6-1338.52,448.03-1348.98,56.28,169.1,112.38,337.66,168.48,506.23,.32-.01,.64-.01,.95-.02,39.68-158.97,79.36-317.95,119.05-476.92,39.63-158.77,79.26-317.55,120.11-476.29,79.42,318.15,158.85,636.3,238.58,955.67,56.49-170.05,112.62-339.04,168.75-508.02,.35-.02,.7-.03,1.05-.05,149.48,449.28,298.96,898.55,448.61,1348.36h-87.15c-62.36-187.44-124.83-375.17-187.34-563.05h-274.83c46.82,187.69,93.56,375.1,140.41,562.93h-84.12c-2.54-10.01-5.19-20.26-7.75-30.52-20.22-81.04-40.46-162.07-60.64-243.12-18.93-76.05-37.77-152.12-56.71-228.17-4.81-19.32-9.9-38.58-14.62-57.92-.67-2.75-1.71-3.7-4.3-3.41-.49,.06-1,.01-1.5,.01-146.66,0-293.33,0-439.99,.01-.82-.02-1.65-.02-3.09-.02Zm20.87-83.69h406.32c-67.62-271.08-135.16-541.86-202.71-812.64-.3-.01-.59-.03-.89-.04-67.53,270.74-135.07,541.47-202.72,812.68Zm-84.39-.01c.42-1.46,.87-2.86,1.23-4.29,2.99-11.93,6.08-23.84,8.85-35.82,.6-2.58,.67-5.65-.15-8.12-11.06-33.6-22.36-67.12-33.52-100.69-29.43-88.47-58.83-176.96-88.25-265.43-2.83-8.53-5.69-17.05-8.99-26.96-49.22,147.96-97.96,294.48-146.81,441.32,89.54-.01,178.47-.01,267.64-.01Zm696.69-439.02c-.38,0-.76,.01-1.14,.01-8.48,25.52-16.95,51.04-25.44,76.55-20.67,62.15-41.34,124.3-62.04,186.44-14.17,42.55-28.39,85.08-42.53,127.63-.66,1.99-1.44,4.34-1,6.24,3.28,14.04,6.85,28.02,10.31,41.94h267.85c-48.78-146.58-97.39-292.69-146.01-438.81Z"/></svg>